<svg width="2492" height="537" viewBox="0 0 2492 537" fill="none" xmlns="http://www.w3.org/2000/svg">
<path d="M471.262 487.524C506.52 510.843 549.595 524.5 596 524.5C644.268 524.5 688.934 509.724 724.949 484.668V499.812V512.312H737.449H772.74H772.749H772.758L937.08 512.08L949.563 512.062V511.818H962.767H975.267V499.318V402.768V392.606L965.327 390.533L965.325 390.533L965.323 390.532L965.321 390.532L965.319 390.532L965.316 390.531L965.238 390.514C965.162 390.498 965.039 390.471 964.874 390.435C964.544 390.361 964.049 390.249 963.431 390.101C962.187 389.804 960.486 389.374 958.646 388.842C956.859 388.325 955.282 387.806 953.982 387.328C969.076 383.854 984.376 379.386 999.68 373.882C1038.9 359.775 1073.28 340.662 1100.42 318.982C1128.06 423.431 1224.09 497.279 1337.1 510.239C1344.76 511.116 1351.68 511.82 1359.27 512.088C1360.62 512.135 1362.37 512.106 1363.53 512.078C1363.85 512.071 1364.15 512.063 1364.42 512.055C1364.7 512.047 1364.94 512.04 1365.15 512.033C1365.32 512.027 1365.47 512.022 1365.59 512.018H1529.37H1541.95L1541.87 499.441L1541.56 448.492C1589.41 489.544 1663.43 524.044 1738.51 524.044C1800.2 524.044 1856.11 500.995 1899.19 470.197L1899 500.165L1898.92 512.744H1911.5H2118.61H2130.96L2131.11 500.399L2132.01 427.508L2173.5 428.05L2186.16 428.215V427.219L2233.61 427.633V499.935V512.435H2246.11H2467H2479.5V499.935V387.716V375.992L2467.82 375.243L2467.82 375.243L2467.81 375.242L2467.81 375.242L2467.8 375.242L2467.8 375.242L2467.79 375.241L2467.76 375.239L2467.6 375.226C2467.41 375.211 2467.12 375.185 2466.75 375.147C2465.99 375.069 2464.97 374.945 2463.89 374.764C2462.78 374.578 2461.8 374.362 2461.06 374.142C2461.01 374.125 2460.95 374.11 2460.91 374.095C2460.74 373.907 2460.5 373.621 2460.19 373.209C2459.42 372.177 2458.59 370.865 2457.79 369.449C2456.99 368.06 2456.32 366.736 2455.83 365.752C2455.83 365.734 2455.82 365.717 2455.81 365.699L2425.26 162.798C2425.27 162.646 2425.29 162.482 2425.31 162.307C2425.44 161.132 2425.64 159.542 2425.94 157.853C2426.25 156.128 2426.63 154.513 2427.05 153.215C2427.22 152.692 2427.36 152.326 2427.46 152.09C2427.56 152.018 2427.69 151.932 2427.85 151.832C2428.69 151.307 2429.8 150.729 2431.07 150.157C2432.29 149.601 2433.47 149.136 2434.35 148.809C2434.78 148.647 2435.13 148.525 2435.35 148.448C2435.46 148.41 2435.54 148.383 2435.58 148.368L2435.6 148.361L2435.6 148.36L2435.61 148.359L2435.61 148.358L2435.62 148.356L2435.62 148.355L2444.22 145.548V136.478V36.9647V24.4647H2431.72H2411.96H2380.19H2211.53H2199.03V36.9647V37.9707L2193.92 55.1599L2186.16 36.9041V24.4647H2173.66H2172.61V32.685L2171.96 32.807V24.4647H1959.49H1946.99V36.9647V103.278C1903.77 48.0976 1833.95 12.5 1755.48 12.5C1752.24 12.5 1749 12.5555 1745.76 12.6768C1742.36 12.5594 1738.95 12.5 1735.52 12.5C1655.11 12.5 1582.63 44.9908 1532.58 96.9197C1520 81.9661 1505.3 66.9456 1489.23 55.4992C1446.59 23.7261 1392.21 14.6618 1336.75 13.1684C1249.08 10.8077 1176.93 53.1752 1136.89 105.4C1125.04 84.4174 1111.64 66.6261 1091.82 53.1929C1066.45 36.0038 1032.23 27.023 981.111 24.4799L980.8 24.4645H980.49H737.394H673C641.69 24.4645 613.653 39.0149 596.5 61.7208C579.347 39.0149 551.31 24.4645 520 24.4645C484.671 24.4645 453.479 43.0038 437.425 70.8904C392.433 34.8379 334.465 13.1793 271.298 13.1793C128.924 13.1793 12.5 123.45 12.5 260.692C12.5 398.373 125.717 500.718 270.353 511.689L270.574 511.706L270.795 511.715L288.441 512.425L288.718 512.436L288.996 512.435L458.814 511.725L471.262 511.673V499.225V487.524Z" fill="#0C4DA2" stroke="white" stroke-width="25"/>
<path d="M2005.62 80.7622L2005.74 107.702C2005.74 107.702 2017.52 110.873 2022.2 114.571C2027.55 118.8 2026.2 126.304 2026.2 126.304C2026.2 126.304 1983.47 391.85 1982.54 396.778C1981.54 402.08 1980.13 414.468 1972.68 421.356C1965.26 428.204 1956.71 429.584 1956.71 429.584L1956.59 456.153H2076.23V431.328C2076.23 431.328 2066.5 430.575 2060.01 424.088C2053.52 417.601 2055.39 399.773 2055.39 399.773L2084.83 199.156L2144.72 371.815L2217.66 372.818L2276.91 186.883L2309.98 400.761C2309.98 400.761 2313.97 416.84 2305.36 425.092C2298.74 431.442 2289.15 432.332 2289.15 432.332V457.156H2427.76L2427.63 430.587C2427.63 430.587 2424.53 431.65 2416.66 425.339C2412.03 421.627 2409.8 405.075 2408.8 399.773C2407.87 394.845 2370.53 127.647 2370.53 127.647C2370.53 127.647 2369.88 116.614 2375.93 110.974C2380.29 106.909 2389.22 103.055 2389.22 103.055L2389.01 81.0555L2245.11 80.8857L2192.45 232.564L2142.23 80.8857L2005.62 80.7622Z" fill="#FFCB08"/>
<path d="M1736.57 68.0259C1617.69 68.0259 1521.31 157.443 1521.31 267.747C1521.31 378.052 1617.69 467.469 1736.57 467.469C1855.45 467.469 1951.82 378.052 1951.82 267.747C1951.82 157.443 1855.45 68.0259 1736.57 68.0259ZM1737.97 130.118C1799.16 130.118 1831.96 173.909 1845.26 226.107C1849.06 241.048 1847.52 290.728 1845.25 307.271C1838.34 357.716 1797.11 406.875 1737.28 405.362C1678.97 403.887 1639.97 376.743 1627.89 303.742C1624.35 282.388 1624.29 256.734 1627.17 235.281C1635.52 173.077 1676.78 130.118 1737.97 130.118Z" fill="#FFCB08"/>
<path d="M1349.63 70.0859C1237.5 70.7917 1145.91 152.471 1145.91 259.32C1145.91 366.168 1247.01 457.949 1369.39 455.186L1488.31 455.521V361.902H1465.85C1458.79 379.553 1425.83 396.819 1401.94 396.819C1389.35 396.819 1357.64 395.107 1345.92 391C1325.21 383.748 1295.67 373.339 1269.98 330.166C1263.1 315.032 1243.72 278.152 1248.05 224.352C1250.14 191.928 1270.74 151.451 1307.7 133.121C1323.81 125.129 1340.04 123.817 1368.52 126.402C1388.97 128.258 1409.29 142.637 1416.39 159.895C1421.87 173.243 1420.3 189.507 1413.84 198.772C1413.38 199.433 1413.37 200.018 1413.46 200.649C1413.54 201.13 1414.16 201.93 1414.16 201.93L1425.41 210.723C1425.41 210.723 1428.62 212.95 1432.36 212.85C1434.54 212.792 1438.42 210.434 1438.42 210.434L1502.7 142.974C1462.96 89.3501 1392.34 70.0859 1349.63 70.0859Z" fill="#FFCB08"/>
<path d="M783.609 80.021L783.053 111.376C783.053 111.376 792.235 114.007 801.023 123.757C805.682 128.926 802.798 194.54 802.798 194.54L802.644 404.574C802.644 404.574 805.637 412.853 795.589 421.17C791.796 424.31 788.436 427.638 782.574 428.148L781.88 456.091L915.774 456.415L916.098 427.994C916.098 427.994 911.362 426.125 903.933 419.426C899.739 415.644 897.156 410.201 897.217 404.775C897.33 385.801 897.773 367.57 897.68 349.044C944.581 337.747 985.07 318.591 1000.85 312.78C1060.18 289.108 1106.21 251.523 1103.52 184.475C1103.01 136.972 1078.91 98.0362 1027.3 89.2375C1003.77 82.4393 992.967 81.2514 983.685 80.7311L783.609 80.021ZM936.738 133.272C951.181 132.995 968.191 136.304 981.287 142.9C997.607 153.735 1007.54 164.959 1007.54 188.705C1008.21 199.868 1005 209.466 999.633 219.226C994.042 228.558 977.128 246.474 966.448 256.722C935.227 279.043 924.054 285.586 899.251 297.004L898.854 137.883C912.072 135.39 923.929 133.357 936.738 133.272Z" fill="#FFCB08"/>
<path d="M596 183C511.501 183 443 246.351 443 324.5C443 402.649 511.501 466 596 466C680.499 466 749 402.649 749 324.5C749 246.351 680.499 183 596 183ZM596.999 226.991C640.495 226.991 663.807 258.017 673.256 294.998C675.961 305.584 674.865 340.782 673.253 352.502C668.339 388.242 639.031 423.07 596.504 421.998C555.063 420.953 527.342 401.722 518.753 350.002C516.24 334.872 516.196 316.697 518.243 301.498C524.179 257.428 553.503 226.991 596.999 226.991Z" fill="#FFCB08"/>
<path d="M520.5 80C500.894 80 485 94.9983 485 113.5C485 132.002 500.894 147 520.5 147C540.106 147 556 132.002 556 113.5C556 94.9983 540.106 80 520.5 80Z" fill="#FFCB08"/>
<path d="M671.5 80C651.894 80 636 94.9983 636 113.5C636 132.002 651.894 147 671.5 147C691.106 147 707 132.002 707 113.5C707 94.9983 691.106 80 671.5 80Z" fill="#FFCB08"/>
<path d="M271.133 69.8364C159 70.5422 67.4177 152.222 67.4177 259.07C67.4177 365.918 168.517 457.7 290.894 454.937L409.81 455.272V361.652H387.35C380.294 379.304 347.337 396.569 323.441 396.569C310.848 396.569 279.147 394.858 267.42 390.75C246.716 383.499 217.173 373.089 191.486 329.916C184.602 314.782 165.22 277.902 169.55 224.103C171.648 191.678 192.244 151.202 229.202 132.872C245.317 124.879 261.541 123.568 290.026 126.153C310.476 128.009 330.796 142.388 337.89 159.646C343.377 172.993 341.801 189.258 335.341 198.522C334.88 199.183 334.87 199.769 334.966 200.4C335.039 200.88 335.661 201.68 335.661 201.68L346.917 210.473C346.917 210.473 350.122 212.7 353.865 212.6C356.039 212.542 359.925 210.184 359.925 210.184L424.207 142.725C384.466 89.1006 313.841 69.8364 271.133 69.8364Z" fill="#FFCB08"/>
</svg>
